<svg width="200" height="200" viewBox="0 0 200 200" fill="none" xmlns="http://www.w3.org/2000/svg">
<path d="M132.289 89.9478C131.917 90.6689 130.885 90.6689 130.513 89.9478L126.112 81.4344C126.021 81.2582 125.88 81.1131 125.706 81.0175L117.387 76.439C116.696 76.059 116.696 75.0668 117.387 74.6868L125.706 70.1083C125.88 70.0127 126.021 69.8676 126.112 69.6914L130.513 61.178C130.885 60.4569 131.917 60.4569 132.289 61.178L136.69 69.6914C136.781 69.8676 136.922 70.0127 137.096 70.1083L145.415 74.6868C146.106 75.0668 146.106 76.059 145.415 76.439L137.096 81.0175C136.922 81.1131 136.781 81.2582 136.69 81.4344L132.289 89.9478ZM157.608 57.4291C157.517 57.2529 157.376 57.1078 157.202 57.0121L138.481 46.7094C137.791 46.3294 137.791 45.3372 138.481 44.9572L157.202 34.6542C157.376 34.5586 157.517 34.4135 157.608 34.2373L167.556 14.9908C167.929 14.2697 168.96 14.2697 169.333 14.9908L179.281 34.2373C179.372 34.4135 179.513 34.5586 179.687 34.6542L198.408 44.9572C199.099 45.3372 199.099 46.3294 198.408 46.7094L179.687 57.0121C179.513 57.1078 179.372 57.2529 179.281 57.4291L169.333 76.6756C168.96 77.3967 167.929 77.3967 167.556 76.6756L157.608 57.4291ZM155.974 44.9572C155.283 45.3372 155.283 46.3294 155.974 46.7094L163.287 50.7339C163.46 50.8295 163.602 50.9746 163.693 51.1508L167.556 58.6254C167.929 59.3465 168.96 59.3465 169.333 58.6254L173.196 51.1508C173.287 50.9746 173.429 50.8295 173.602 50.7339L180.915 46.7094C181.606 46.3294 181.606 45.3372 180.915 44.9572L173.602 40.9327C173.429 40.8371 173.287 40.6919 173.196 40.5158L169.333 33.041C168.96 32.3199 167.929 32.3199 167.556 33.041L163.693 40.5158C163.602 40.6919 163.46 40.8371 163.287 40.9327L155.974 44.9572ZM120.159 27.2822C120.333 27.3778 120.474 27.523 120.565 27.6992L126.397 38.9823C126.769 39.7034 127.801 39.7034 128.173 38.9823L134.005 27.6992C134.096 27.523 134.238 27.3778 134.412 27.2822L145.415 21.2267C146.106 20.8468 146.106 19.8546 145.415 19.4746L134.411 13.4187C134.238 13.3231 134.096 13.178 134.005 13.0018L128.173 1.7186C127.801 0.997472 126.769 0.997485 126.397 1.71862L120.565 13.0018C120.474 13.178 120.333 13.3231 120.159 13.4187L109.155 19.4746C108.465 19.8546 108.465 20.8468 109.155 21.2267L120.159 27.2822Z" fill="white"/>
<path d="M6 102.667H97.3613V194H30C16.7452 194 6 183.255 6 170V102.667Z" stroke="white" stroke-width="12"/>
<mask id="path-3-inside-1_1278_941" fill="white">
<path d="M103.361 96.6665H190C195.523 96.6665 200 101.144 200 106.667V170C200 186.568 186.569 200 170 200H103.361V96.6665Z"/>
</mask>
<path d="M103.361 84.6665H190C202.15 84.6665 212 94.5162 212 106.667L188 108.667H103.361V84.6665ZM212 170C212 193.196 193.196 212 170 212H103.361V188H170C179.941 188 188 179.941 188 170H212ZM103.361 200V96.6665V200ZM190 84.6665C202.15 84.6665 212 94.5162 212 106.667V170C212 193.196 193.196 212 170 212V188C179.941 188 188 179.941 188 170V108.667L190 84.6665Z" fill="white" mask="url(#path-3-inside-1_1278_941)"/>
<mask id="path-5-inside-2_1278_941" fill="white">
<path d="M0 30C0 13.4314 13.4315 0 30 0H93.3613C98.8842 0 103.361 4.47715 103.361 10V96.6667H0V30Z"/>
</mask>
<path d="M-12 30C-12 6.80404 6.80404 -12 30 -12H93.3613C105.512 -12 115.361 -2.15026 115.361 10L91.3613 12H30C20.0589 12 12 20.0589 12 30H-12ZM103.361 96.6667H0H103.361ZM-12 96.6667V30C-12 6.80404 6.80404 -12 30 -12V12C20.0589 12 12 20.0589 12 30V96.6667H-12ZM93.3613 -12C105.512 -12 115.361 -2.15026 115.361 10V96.6667H91.3613V12L93.3613 -12Z" fill="white" mask="url(#path-5-inside-2_1278_941)"/>
</svg>
